<svg xmlns="http://www.w3.org/2000/svg" xmlns:xlink="http://www.w3.org/1999/xlink" xmlns:s="https://github.com/nturley/netlistsvg" width="668" height="574">
  <style>svg {
    stroke:#000;
    fill:none;
  }
  text {
    fill:#000;
    stroke:none;
    font-size:10px;
    font-weight: bold;
    font-family: "Courier New", monospace;
  }
  .nodelabel {
    text-anchor: middle;
  }
  .inputPortLabel {
    text-anchor: end;
  }
  .splitjoinBody {
    fill:#000;
  }</style>
  <g s:type="generic" transform="translate(281,161.5)" s:width="30" s:height="40" id="cell_Add1">
    <text x="15" y="-4" class="nodelabel cell_Add1" s:attribute="ref">FourBitAdder</text>
    <rect width="30" height="60" s:generic="body" class="cell_Add1"/>
    <g transform="translate(0,10)" s:x="0" s:y="10" s:pid="in0" id="port_Add1~RCOAddX">
      <text x="-3" y="-4" class="inputPortLabel cell_Add1">RCOAddX</text>
    </g>
    <g transform="translate(0,30)" s:x="0" s:y="10" s:pid="in0" id="port_Add1~RCOAddY">
      <text x="-3" y="-4" class="inputPortLabel cell_Add1">RCOAddY</text>
    </g>
    <g transform="translate(0,50)" s:x="0" s:y="10" s:pid="in0" id="port_Add1~RCOCarryIn">
      <text x="-3" y="-4" class="inputPortLabel cell_Add1">RCOCarryIn</text>
    </g>
    <g transform="translate(30,10)" s:x="30" s:y="10" s:pid="out0" id="port_Add1~RCOCarryOut">
      <text x="5" y="-4" style="fill:#000; stroke:none" class="cell_Add1">RCOCarryOut</text>
    </g>
    <g transform="translate(30,30)" s:x="30" s:y="10" s:pid="out0" id="port_Add1~RCOSum">
      <text x="5" y="-4" style="fill:#000; stroke:none" class="cell_Add1">RCOSum</text>
    </g>
  </g>
  <g s:type="generic" transform="translate(511,151.5)" s:width="30" s:height="40" id="cell_DO">
    <text x="15" y="-4" class="nodelabel cell_DO" s:attribute="ref">DispOut</text>
    <rect width="30" height="20" s:generic="body" class="cell_DO"/>
    <g transform="translate(0,10)" s:x="0" s:y="10" s:pid="in0" id="port_DO~DataIn">
      <text x="-3" y="-4" class="inputPortLabel cell_DO">DataIn</text>
    </g>
    <g transform="translate(30,10)" s:x="30" s:y="10" s:pid="out0" id="port_DO~DataOut">
      <text x="5" y="-4" style="fill:#000; stroke:none" class="cell_DO">DataOut</text>
    </g>
  </g>
  <g s:type="generic" transform="translate(117,201.5)" s:width="30" s:height="40" id="cell_In0">
    <text x="15" y="-4" class="nodelabel cell_In0" s:attribute="ref">InputRead</text>
    <rect width="30" height="180" s:generic="body" class="cell_In0"/>
    <g transform="translate(0,10)" s:x="0" s:y="10" s:pid="in0" id="port_In0~Btn0">
      <text x="-3" y="-4" class="inputPortLabel cell_In0">Btn0</text>
    </g>
    <g transform="translate(0,30)" s:x="0" s:y="10" s:pid="in0" id="port_In0~Sw0">
      <text x="-3" y="-4" class="inputPortLabel cell_In0">Sw0</text>
    </g>
    <g transform="translate(0,50)" s:x="0" s:y="10" s:pid="in0" id="port_In0~Sw1">
      <text x="-3" y="-4" class="inputPortLabel cell_In0">Sw1</text>
    </g>
    <g transform="translate(0,70)" s:x="0" s:y="10" s:pid="in0" id="port_In0~Sw2">
      <text x="-3" y="-4" class="inputPortLabel cell_In0">Sw2</text>
    </g>
    <g transform="translate(0,90)" s:x="0" s:y="10" s:pid="in0" id="port_In0~Sw3">
      <text x="-3" y="-4" class="inputPortLabel cell_In0">Sw3</text>
    </g>
    <g transform="translate(0,110)" s:x="0" s:y="10" s:pid="in0" id="port_In0~Sw4">
      <text x="-3" y="-4" class="inputPortLabel cell_In0">Sw4</text>
    </g>
    <g transform="translate(0,130)" s:x="0" s:y="10" s:pid="in0" id="port_In0~Sw5">
      <text x="-3" y="-4" class="inputPortLabel cell_In0">Sw5</text>
    </g>
    <g transform="translate(0,150)" s:x="0" s:y="10" s:pid="in0" id="port_In0~Sw6">
      <text x="-3" y="-4" class="inputPortLabel cell_In0">Sw6</text>
    </g>
    <g transform="translate(0,170)" s:x="0" s:y="10" s:pid="in0" id="port_In0~Sw7">
      <text x="-3" y="-4" class="inputPortLabel cell_In0">Sw7</text>
    </g>
    <g transform="translate(30,10)" s:x="30" s:y="10" s:pid="out0" id="port_In0~Cin">
      <text x="5" y="-4" style="fill:#000; stroke:none" class="cell_In0">Cin</text>
    </g>
    <g transform="translate(30,30)" s:x="30" s:y="10" s:pid="out0" id="port_In0~InputX">
      <text x="5" y="-4" style="fill:#000; stroke:none" class="cell_In0">InputX</text>
    </g>
    <g transform="translate(30,50)" s:x="30" s:y="10" s:pid="out0" id="port_In0~InputY">
      <text x="5" y="-4" style="fill:#000; stroke:none" class="cell_In0">InputY</text>
    </g>
  </g>
  <g s:type="outputExt" transform="translate(620,152)" s:width="30" s:height="20" id="cell_Output">
    <text x="15" y="-4" class="nodelabel cell_Output" s:attribute="ref">Output</text>
    <s:alias val="$_outputExt_"/>
    <path d="M30,0 L30,20 L15,20 L0,10 L15,0 Z" class="cell_Output"/>
    <g s:x="0" s:y="10" s:pid="A"/>
  </g>
  <g s:type="inputExt" transform="translate(12,87)" s:width="30" s:height="20" id="cell_Sw0">
    <text x="15" y="-4" class="nodelabel cell_Sw0" s:attribute="ref">Sw0</text>
    <s:alias val="$_inputExt_"/>
    <path d="M0,0 L0,20 L15,20 L30,10 L15,0 Z" class="cell_Sw0"/>
    <g s:x="28" s:y="10" s:pid="Y"/>
  </g>
  <g s:type="inputExt" transform="translate(12,152)" s:width="30" s:height="20" id="cell_Sw1">
    <text x="15" y="-4" class="nodelabel cell_Sw1" s:attribute="ref">Sw1</text>
    <s:alias val="$_inputExt_"/>
    <path d="M0,0 L0,20 L15,20 L30,10 L15,0 Z" class="cell_Sw1"/>
    <g s:x="28" s:y="10" s:pid="Y"/>
  </g>
  <g s:type="inputExt" transform="translate(12,217)" s:width="30" s:height="20" id="cell_Sw2">
    <text x="15" y="-4" class="nodelabel cell_Sw2" s:attribute="ref">Sw2</text>
    <s:alias val="$_inputExt_"/>
    <path d="M0,0 L0,20 L15,20 L30,10 L15,0 Z" class="cell_Sw2"/>
    <g s:x="28" s:y="10" s:pid="Y"/>
  </g>
  <g s:type="inputExt" transform="translate(12,282)" s:width="30" s:height="20" id="cell_Sw3">
    <text x="15" y="-4" class="nodelabel cell_Sw3" s:attribute="ref">Sw3</text>
    <s:alias val="$_inputExt_"/>
    <path d="M0,0 L0,20 L15,20 L30,10 L15,0 Z" class="cell_Sw3"/>
    <g s:x="28" s:y="10" s:pid="Y"/>
  </g>
  <g s:type="inputExt" transform="translate(12,347)" s:width="30" s:height="20" id="cell_Sw4">
    <text x="15" y="-4" class="nodelabel cell_Sw4" s:attribute="ref">Sw4</text>
    <s:alias val="$_inputExt_"/>
    <path d="M0,0 L0,20 L15,20 L30,10 L15,0 Z" class="cell_Sw4"/>
    <g s:x="28" s:y="10" s:pid="Y"/>
  </g>
  <g s:type="inputExt" transform="translate(12,412)" s:width="30" s:height="20" id="cell_Sw5">
    <text x="15" y="-4" class="nodelabel cell_Sw5" s:attribute="ref">Sw5</text>
    <s:alias val="$_inputExt_"/>
    <path d="M0,0 L0,20 L15,20 L30,10 L15,0 Z" class="cell_Sw5"/>
    <g s:x="28" s:y="10" s:pid="Y"/>
  </g>
  <g s:type="inputExt" transform="translate(12,477)" s:width="30" s:height="20" id="cell_Sw6">
    <text x="15" y="-4" class="nodelabel cell_Sw6" s:attribute="ref">Sw6</text>
    <s:alias val="$_inputExt_"/>
    <path d="M0,0 L0,20 L15,20 L30,10 L15,0 Z" class="cell_Sw6"/>
    <g s:x="28" s:y="10" s:pid="Y"/>
  </g>
  <g s:type="inputExt" transform="translate(12,542)" s:width="30" s:height="20" id="cell_Sw7">
    <text x="15" y="-4" class="nodelabel cell_Sw7" s:attribute="ref">Sw7</text>
    <s:alias val="$_inputExt_"/>
    <path d="M0,0 L0,20 L15,20 L30,10 L15,0 Z" class="cell_Sw7"/>
    <g s:x="28" s:y="10" s:pid="Y"/>
  </g>
  <g s:type="inputExt" transform="translate(12,22)" s:width="30" s:height="20" id="cell_Btn0">
    <text x="15" y="-4" class="nodelabel cell_Btn0" s:attribute="ref">Btn0</text>
    <s:alias val="$_inputExt_"/>
    <path d="M0,0 L0,20 L15,20 L30,10 L15,0 Z" class="cell_Btn0"/>
    <g s:x="28" s:y="10" s:pid="Y"/>
  </g>
  <g s:type="join" transform="translate(433,141.5)" s:width="4" s:height="40" id="cell_$join$,26,27,28,29,25,">
    <rect width="5" height="40" class="splitjoinBody" s:generic="body"/>
    <s:alias val="$_join_"/>
    <g s:x="5" s:y="20" s:pid="out"/>
    <g transform="translate(0,10)" s:x="0" s:y="10" s:pid="in0">
      <text x="-3" y="-4" class="inputPortLabel">0:3</text>
    </g>
    <g transform="translate(0,30)" s:x="0" s:y="10" s:pid="in0">
      <text x="-3" y="-4" class="inputPortLabel">4</text>
    </g>
  </g>
  <line x1="148" x2="195" y1="232" y2="232" class="net_16,17,18,19"/>
  <line x1="195" x2="195" y1="232" y2="172" class="net_16,17,18,19"/>
  <line x1="195" x2="281" y1="172" y2="172" class="net_16,17,18,19"/>
  <line x1="148" x2="205" y1="252" y2="252" class="net_20,21,22,23"/>
  <line x1="205" x2="205" y1="252" y2="192" class="net_20,21,22,23"/>
  <line x1="205" x2="281" y1="192" y2="192" class="net_20,21,22,23"/>
  <line x1="148" x2="281" y1="212" y2="212" class="net_24"/>
  <line x1="439" x2="511" y1="162" y2="162" class="net_26,27,28,29,25"/>
  <line x1="40" x2="82" y1="32" y2="32" class="net_15"/>
  <line x1="82" x2="82" y1="32" y2="212" class="net_15"/>
  <line x1="82" x2="117" y1="212" y2="212" class="net_15"/>
  <line x1="40" x2="72" y1="97" y2="97" class="net_7"/>
  <line x1="72" x2="72" y1="97" y2="232" class="net_7"/>
  <line x1="72" x2="117" y1="232" y2="232" class="net_7"/>
  <line x1="40" x2="62" y1="162" y2="162" class="net_8"/>
  <line x1="62" x2="62" y1="162" y2="252" class="net_8"/>
  <line x1="62" x2="117" y1="252" y2="252" class="net_8"/>
  <line x1="40" x2="52" y1="227" y2="227" class="net_9"/>
  <line x1="52" x2="52" y1="227" y2="272" class="net_9"/>
  <line x1="52" x2="117" y1="272" y2="272" class="net_9"/>
  <line x1="40" x2="117" y1="292" y2="292" class="net_10"/>
  <line x1="40" x2="52" y1="357" y2="357" class="net_11"/>
  <line x1="52" x2="52" y1="357" y2="312" class="net_11"/>
  <line x1="52" x2="117" y1="312" y2="312" class="net_11"/>
  <line x1="40" x2="62" y1="422" y2="422" class="net_12"/>
  <line x1="62" x2="62" y1="422" y2="332" class="net_12"/>
  <line x1="62" x2="117" y1="332" y2="332" class="net_12"/>
  <line x1="40" x2="72" y1="487" y2="487" class="net_13"/>
  <line x1="72" x2="72" y1="487" y2="352" class="net_13"/>
  <line x1="72" x2="117" y1="352" y2="352" class="net_13"/>
  <line x1="40" x2="82" y1="552" y2="552" class="net_14"/>
  <line x1="82" x2="82" y1="552" y2="372" class="net_14"/>
  <line x1="82" x2="117" y1="372" y2="372" class="net_14"/>
  <line x1="542" x2="620" y1="162" y2="162" class="net_2,3,4,5,6"/>
  <line x1="312" x2="389" y1="192" y2="192" class="net_26,27,28,29"/>
  <line x1="389" x2="389" y1="192" y2="152" class="net_26,27,28,29"/>
  <line x1="389" x2="433" y1="152" y2="152" class="net_26,27,28,29"/>
  <line x1="312" x2="433" y1="172" y2="172" class="net_25"/>
</svg>
